<?xml version="1.0" encoding="UTF-8"?>
<svg width="1024" height="1024" version="1.1" viewBox="0 0 1024 1024" xmlns="http://www.w3.org/2000/svg">
 <circle cx="512" cy="512" r="512" fill="#ffeecb"/>
 <circle cx="512" cy="512" r="475" fill="#402e32"/>
 <g fill="#ffeecb" stroke-width="23.85">
  <path d="m750.9 172.23a449.8 449.8 0 0 0-477.24 0 24.37 24.37 0 0 0-7.7468 34.054l1.7753 2.7438a24.047 24.047 0 0 0 32.278 7.4239 398.31 398.31 0 0 1 423.81 0 24.047 24.047 0 0 0 32.278-7.4239l1.7752-2.7438a24.37 24.37 0 0 0-6.9396-34.054z"/>
  <path d="m687.34 234.09a332.31 332.31 0 0 0-350.22 0 24.37 24.37 0 0 0-7.424 33.892l1.7753 2.7438a24.047 24.047 0 0 0 32.278 7.4239 280.82 280.82 0 0 1 296.32 0 24.047 24.047 0 0 0 32.278-7.4239l1.7753-2.7438a24.37 24.37 0 0 0-6.7783-33.892z"/>
  <path d="m623.53 288.3a216.43 216.43 0 0 0-223.04 0 24.209 24.209 0 0 0-7.4241 33.731l1.6141 2.5822a24.532 24.532 0 0 0 33.247 7.1013 165.75 165.75 0 0 1 168.17 0 24.532 24.532 0 0 0 33.247-7.2626l1.6139-2.5822a24.047 24.047 0 0 0-7.4241-33.569z"/>
 </g>
 <path d="m250.2 679.09a261.8 261.8 0 0 0 261.8 261.8 261.8 261.8 0 0 0-261.8-261.8m261.8 261.8a261.8 261.8 0 0 0 261.8-261.8 261.8 261.8 0 0 0-261.8 261.8m174.54-552.69v145.45a174.54 174.54 0 0 1-174.54 174.53 174.54 174.54 0 0 1-174.54-174.53v-145.45c21.526 0 42.761 3.4905 62.832 11.345 15.999 6.6905 30.253 16.581 42.18 29.089l69.523-69.523 69.523 69.523c11.926-12.508 26.18-22.399 42.179-29.089 20.071-7.8542 41.307-11.345 62.833-11.345z" fill="#007d4f" stroke-width="29.089"/>
</svg>
