<?xml version="1.0" standalone="no"?>
<!DOCTYPE svg PUBLIC "-//W3C//DTD SVG 20010904//EN"
 "http://www.w3.org/TR/2001/REC-SVG-20010904/DTD/svg10.dtd">
<svg version="1.0" xmlns="http://www.w3.org/2000/svg"
 width="700.000000pt" height="700.000000pt" viewBox="0 0 700.000000 700.000000"
 preserveAspectRatio="xMidYMid meet">
<metadata>
Created by potrace 1.14, written by Peter Selinger 2001-2017
</metadata>
<g transform="translate(0.000000,700.000000) scale(0.100000,-0.100000)"
fill="#000000" stroke="none">
<path d="M3180 6729 c-649 -71 -1215 -304 -1721 -707 -116 -92 -314 -286 -423
-413 -426 -496 -689 -1104 -760 -1756 -21 -185 -21 -521 -1 -706 98 -900 568
-1714 1304 -2260 426 -317 947 -528 1486 -603 256 -35 681 -30 945 12 1131
179 2092 952 2509 2019 94 241 149 449 192 725 31 198 34 683 6 885 -86 605
-303 1114 -687 1607 -83 107 -380 405 -490 492 -503 397 -1072 634 -1687 701
-153 16 -540 19 -673 4z m765 -467 c414 -65 797 -201 1132 -403 106 -64 128
-94 128 -175 0 -108 -71 -184 -173 -184 -46 0 -65 7 -139 50 -335 199 -688
318 -1083 366 -188 23 -562 15 -740 -15 -352 -60 -668 -175 -957 -347 -112
-67 -188 -72 -253 -18 -67 57 -88 149 -50 224 23 45 109 102 301 200 324 165
707 278 1084 320 145 16 603 5 750 -18z m-60 -551 c231 -41 425 -106 637 -212
194 -96 228 -124 248 -200 13 -46 6 -79 -26 -136 -33 -56 -85 -87 -149 -87
-40 0 -62 7 -110 36 -212 128 -467 217 -718 253 -132 19 -403 19 -536 0 -254
-36 -455 -108 -736 -262 -95 -53 -188 -27 -242 65 -33 56 -36 123 -7 173 26
45 89 86 259 169 218 107 462 183 670 209 50 6 101 13 115 15 14 3 126 3 250
1 176 -2 251 -7 345 -24z m-155 -486 c122 -20 220 -47 334 -94 140 -57 227
-112 254 -159 38 -67 26 -147 -32 -210 -62 -69 -132 -70 -270 -3 -189 93 -317
123 -516 123 -197 0 -346 -36 -520 -125 -73 -38 -106 -49 -142 -49 -131 -1
-220 149 -157 262 51 90 331 212 585 255 111 18 348 18 464 0z m12 -922 l238
-238 47 46 c135 130 340 212 566 226 l97 6 0 -534 c0 -600 -4 -654 -66 -840
-135 -407 -495 -714 -924 -790 -93 -16 -313 -16 -400 0 -172 32 -318 91 -460
186 -288 192 -471 488 -520 840 -5 39 -10 310 -10 604 l0 534 98 -6 c225 -14
430 -96 565 -226 l47 -46 238 238 c130 130 239 237 242 237 3 0 112 -107 242
-237z m-1688 -1983 c461 -90 877 -367 1139 -758 164 -243 279 -574 294 -844 3
-54 9 -98 13 -98 4 0 10 44 13 97 15 271 130 602 294 845 307 458 830 759
1366 785 l117 6 -5 -44 c-2 -24 -7 -79 -10 -122 -12 -186 -85 -439 -180 -629
-97 -191 -206 -339 -362 -489 -628 -604 -1600 -663 -2303 -140 -217 162 -414
399 -534 645 -97 197 -168 474 -179 695 l-4 84 116 -6 c64 -3 165 -15 225 -27z"/>
</g>
</svg>
