<svg width="1024" height="1024" xmlns="http://www.w3.org/2000/svg"><path d="M512 0A512 512 0 000 512a512 512 0 00512 512 512 512 0 00512-512A512 512 0 00512 0zm0 37a475 475 0 01475 475 475 475 0 01-475 475A475 475 0 0137 512 475 475 0 01512 37z" fill="#ffeecb"/><path d="M750.903 172.227a449.798 449.798 0 00-477.236 0 24.37 24.37 0 00-7.746 34.053l1.775 2.744a24.047 24.047 0 0032.278 7.424 398.315 398.315 0 01423.815 0 24.047 24.047 0 0032.278-7.424l1.775-2.744a24.37 24.37 0 00-6.94-34.053z" fill="#ffeecb"/><path d="M687.336 234.087a332.305 332.305 0 00-350.22 0 24.37 24.37 0 00-7.424 33.892l1.776 2.743a24.047 24.047 0 0032.278 7.424 280.822 280.822 0 01296.315 0 24.047 24.047 0 0032.278-7.424l1.776-2.743a24.37 24.37 0 00-6.779-33.892z" fill="#ffeecb"/><path d="M623.527 288.297a216.426 216.426 0 00-223.043 0 24.209 24.209 0 00-7.424 33.73l1.614 2.583a24.532 24.532 0 0033.246 7.1 165.75 165.75 0 01168.17 0 24.532 24.532 0 0033.247-7.262l1.614-2.582a24.047 24.047 0 00-7.424-33.57z" fill="#ffeecb"/><path d="M250.197 679.092A261.803 261.803 0 00512 940.895a261.803 261.803 0 00-261.803-261.803M512 940.895a261.803 261.803 0 00261.803-261.803A261.803 261.803 0 00512 940.895m174.535-552.694v145.446A174.535 174.535 0 01512 708.18a174.535 174.535 0 01-174.535-174.534V388.2c21.526 0 42.761 3.49 62.832 11.344 16 6.691 30.253 16.581 42.18 29.09L512 359.11l69.523 69.524c11.927-12.509 26.18-22.399 42.18-29.09 20.07-7.854 41.306-11.344 62.832-11.344z" fill="#007d4f"/></svg>